<svg width="56" height="55" viewBox="0 0 56 55" fill="none" xmlns="http://www.w3.org/2000/svg">
<path d="M2.16699 24.4167C2.16699 20.1365 5.63679 16.6667 9.91699 16.6667H46.0837C50.3639 16.6667 53.8337 20.1365 53.8337 24.4167V45.0834C53.8337 49.3636 50.3639 52.8334 46.0837 52.8334H9.91699C5.63678 52.8334 2.16699 49.3636 2.16699 45.0834V24.4167Z" fill="#212121"/>
<path fill-rule="evenodd" clip-rule="evenodd" d="M0.229492 24.4167C0.229492 19.0665 4.56673 14.7292 9.91699 14.7292H46.0837C51.4339 14.7292 55.7712 19.0665 55.7712 24.4167V45.0834C55.7712 50.4337 51.4339 54.7709 46.0837 54.7709H9.91699C4.56673 54.7709 0.229492 50.4337 0.229492 45.0834V24.4167ZM9.91699 18.6042C6.70684 18.6042 4.10449 21.2066 4.10449 24.4167V45.0834C4.10449 48.2936 6.70684 50.8959 9.91699 50.8959H46.0837C49.2938 50.8959 51.8962 48.2936 51.8962 45.0834V24.4167C51.8962 21.2066 49.2938 18.6042 46.0837 18.6042H9.91699Z" fill="#212121"/>
<path d="M42.513 2.64426L9.82687 16.1695C9.56562 16.2776 9.64291 16.6666 9.92564 16.6666H45.8257C45.9684 16.6666 46.084 16.5509 46.084 16.4082V5.03131C46.084 3.19061 44.2138 1.94047 42.513 2.64426Z" fill="#D1EE1E"/>
<path fill-rule="evenodd" clip-rule="evenodd" d="M44.1465 5.03135C44.1465 4.57118 43.6789 4.25864 43.2537 4.43459L18.3753 14.7291H44.1465V5.03135ZM41.7721 0.854025C44.7486 -0.377614 48.0215 1.81013 48.0215 5.03135V16.4083C48.0215 17.621 47.0384 18.6041 45.8256 18.6041H9.92559C7.52237 18.6041 6.86543 15.2982 9.08601 14.3793L41.7721 0.854025L42.5083 2.63323L41.7721 0.854025Z" fill="#212121"/>
<path fill-rule="evenodd" clip-rule="evenodd" d="M5.396 29.5835C5.396 28.5134 6.26344 27.646 7.3335 27.646L48.6668 27.646C49.7369 27.646 50.6043 28.5134 50.6043 29.5835C50.6043 30.6535 49.7369 31.521 48.6668 31.521L7.3335 31.521C6.26344 31.521 5.396 30.6535 5.396 29.5835Z" fill="#D1EE1E"/>
<path fill-rule="evenodd" clip-rule="evenodd" d="M7.97949 42.5002C7.97949 41.4302 8.84694 40.5627 9.91699 40.5627L25.417 40.5627C26.487 40.5627 27.3545 41.4302 27.3545 42.5002C27.3545 43.5703 26.487 44.4377 25.417 44.4377L9.91699 44.4377C8.84694 44.4377 7.97949 43.5703 7.97949 42.5002Z" fill="#D1EE1E"/>
</svg>
