<svg width="56" height="42" viewBox="0 0 56 42" fill="none" xmlns="http://www.w3.org/2000/svg">
<path d="M12.5 31.3333C12.5 29.9066 13.6566 28.75 15.0833 28.75H40.9167C42.3434 28.75 43.5 27.5934 43.5 26.1667V15.8333C43.5 14.4066 44.6566 13.25 46.0833 13.25H51.25C52.6767 13.25 53.8333 14.4066 53.8333 15.8333V36.5C53.8333 37.9267 52.6767 39.0833 51.25 39.0833H15.0833C13.6566 39.0833 12.5 37.9267 12.5 36.5V31.3333Z" fill="#D1EE1E"/>
<path fill-rule="evenodd" clip-rule="evenodd" d="M41.5625 15.8333C41.5625 13.3365 43.5865 11.3125 46.0833 11.3125H51.25C53.7468 11.3125 55.7708 13.3365 55.7708 15.8333V36.5C55.7708 38.9968 53.7468 41.0208 51.25 41.0208H15.0833C12.5865 41.0208 10.5625 38.9968 10.5625 36.5V31.3333C10.5625 28.8365 12.5865 26.8125 15.0833 26.8125H40.9167C41.2733 26.8125 41.5625 26.5234 41.5625 26.1667V15.8333ZM46.0833 15.1875C45.7267 15.1875 45.4375 15.4766 45.4375 15.8333V26.1667C45.4375 28.6635 43.4135 30.6875 40.9167 30.6875H15.0833C14.7266 30.6875 14.4375 30.9767 14.4375 31.3333V36.5C14.4375 36.8567 14.7266 37.1458 15.0833 37.1458H51.25C51.6067 37.1458 51.8958 36.8567 51.8958 36.5V15.8333C51.8958 15.4766 51.6067 15.1875 51.25 15.1875H46.0833Z" fill="#212121"/>
<path d="M2.1665 5.50008C2.1665 4.07335 3.3231 2.91675 4.74984 2.91675H40.9165C42.3432 2.91675 43.4998 4.07335 43.4998 5.50008V26.1667C43.4998 27.5935 42.3432 28.7501 40.9165 28.7501H4.74984C3.3231 28.7501 2.1665 27.5935 2.1665 26.1667V5.50008Z" fill="#212121"/>
<path fill-rule="evenodd" clip-rule="evenodd" d="M0.229004 5.50008C0.229004 3.0033 2.25305 0.979248 4.74984 0.979248H40.9165C43.4133 0.979248 45.4373 3.00329 45.4373 5.50008V26.1667C45.4373 28.6635 43.4133 30.6876 40.9165 30.6876H4.74984C2.25305 30.6876 0.229004 28.6635 0.229004 26.1667V5.50008ZM4.74984 4.85425C4.39315 4.85425 4.104 5.1434 4.104 5.50008V26.1667C4.104 26.5234 4.39315 26.8126 4.74984 26.8126H40.9165C41.2732 26.8126 41.5623 26.5234 41.5623 26.1667V5.50008C41.5623 5.1434 41.2732 4.85425 40.9165 4.85425H4.74984Z" fill="#212121"/>
<path fill-rule="evenodd" clip-rule="evenodd" d="M2.8125 13.25C2.8125 12.1799 3.67995 11.3125 4.75 11.3125L40.9167 11.3125C41.9867 11.3125 42.8542 12.1799 42.8542 13.25C42.8542 14.3201 41.9867 15.1875 40.9167 15.1875L4.75 15.1875C3.67995 15.1875 2.8125 14.3201 2.8125 13.25Z" fill="#D1EE1E"/>
<path fill-rule="evenodd" clip-rule="evenodd" d="M7.979 21C7.979 19.9299 8.84645 19.0625 9.9165 19.0625L20.2498 19.0625C21.3199 19.0625 22.1873 19.9299 22.1873 21C22.1873 22.0701 21.3199 22.9375 20.2498 22.9375L9.9165 22.9375C8.84645 22.9375 7.979 22.0701 7.979 21Z" fill="#D1EE1E"/>
</svg>
