<svg width="39" height="57" viewBox="0 0 39 57" fill="none" xmlns="http://www.w3.org/2000/svg">
<path d="M36.5625 20.4111C36.5625 36.0338 23.8557 50.3083 20.3733 53.9271C19.887 54.4324 19.113 54.4324 18.6266 53.9271C15.1442 50.3083 2.4375 36.0338 2.4375 20.4111C2.4375 9.549 10.9688 2.30762 19.5 2.30762C28.0312 2.30762 36.5625 9.549 36.5625 20.4111Z" fill="#14142B"/>
<path fill-rule="evenodd" clip-rule="evenodd" d="M19.5 4.27637C12.0379 4.27637 4.40625 10.6544 4.40625 20.4111C4.40625 27.7134 7.38777 34.8251 10.9109 40.6519C14.0832 45.8985 17.6081 49.9618 19.5 51.9867C21.3919 49.9618 24.9168 45.8985 28.0891 40.6519C31.6122 34.8251 34.5938 27.7134 34.5938 20.4111C34.5938 10.6544 26.9621 4.27637 19.5 4.27637ZM0.46875 20.4111C0.46875 8.44359 9.89962 0.338867 19.5 0.338867C29.1004 0.338867 38.5312 8.44359 38.5312 20.4111C38.5312 28.7314 35.1594 36.5685 31.4586 42.6892C27.7438 48.833 23.59 53.4237 21.7919 55.2922C20.5311 56.6024 18.4689 56.6024 17.2081 55.2922C15.4099 53.4237 11.2562 48.833 7.54144 42.6892C3.8406 36.5685 0.46875 28.7314 0.46875 20.4111Z" fill="#14142B"/>
<path d="M26.0625 20.625C26.0625 24.2494 23.1244 27.1875 19.5 27.1875C15.8756 27.1875 12.9375 24.2494 12.9375 20.625C12.9375 17.0006 15.8756 14.0625 19.5 14.0625C23.1244 14.0625 26.0625 17.0006 26.0625 20.625Z" fill="#14142B"/>
<path fill-rule="evenodd" clip-rule="evenodd" d="M19.5 16.0312C16.9629 16.0312 14.9062 18.0879 14.9062 20.625C14.9062 23.1621 16.9629 25.2188 19.5 25.2188C22.0371 25.2188 24.0938 23.1621 24.0938 20.625C24.0938 18.0879 22.0371 16.0312 19.5 16.0312ZM10.9688 20.625C10.9688 15.9133 14.7883 12.0938 19.5 12.0938C24.2117 12.0938 28.0312 15.9133 28.0312 20.625C28.0312 25.3367 24.2117 29.1562 19.5 29.1562C14.7883 29.1562 10.9688 25.3367 10.9688 20.625Z" fill="#D1EE1E"/>
</svg>
