<svg width="51" height="51" viewBox="0 0 51 51" fill="none" xmlns="http://www.w3.org/2000/svg">
<path d="M19.1187 10.8414L19.1257 10.8442C19.2709 10.2259 19.7985 9.77083 20.4587 9.77083H39.2634C39.2871 9.77083 39.3108 9.76106 39.3346 9.76246C38.934 3.09177 33.3381 0 28.401 0H9.59635C8.93473 0 8.4071 0.467604 8.26333 1.08456L8.25635 1.08177L0.0362917 38.8223L0.0544375 38.8237C0.0348959 38.913 0 38.9982 0 39.0945C0 39.8664 0.623937 40.4778 1.39583 40.4778H12.6616L19.1187 10.8414Z" fill="#686868"/>
<path d="M39.3351 9.76245C39.409 10.9852 39.3281 12.3154 39.0154 13.7852C37.2274 22.1533 30.7633 26.5083 22.7749 26.5083C22.7749 26.5083 17.9314 26.5083 16.7547 26.5083C16.0274 26.5083 15.6841 26.9354 15.5263 27.262L13.0976 38.4971L12.6719 40.4917H12.6635L10.9005 48.582L10.9187 48.5834C10.8992 48.6727 10.8643 48.7578 10.8643 48.8542C10.8643 49.6261 11.4882 50.25 12.2601 50.25H22.4957L22.5139 50.236C23.1727 50.2263 23.6962 49.7559 23.8329 49.1361L23.8581 49.1152L26.3873 37.3678C26.3873 37.3678 26.5632 36.247 27.7413 36.247C28.9194 36.247 33.5731 36.247 33.5731 36.247C41.5614 36.247 48.0911 31.9115 49.8806 23.5421C51.8934 14.1063 45.1627 9.79735 39.3351 9.76245Z" fill="#C7C7C7"/>
<path d="M20.4587 9.77079C19.7971 9.77079 19.2694 10.2258 19.1257 10.8442L19.1187 10.8414L15.5244 27.2634C15.6821 26.9367 16.0255 26.5096 16.7527 26.5096C17.9308 26.5096 22.6641 26.5096 22.6641 26.5096C30.6525 26.5096 37.2254 22.1546 39.0135 13.7866C39.3276 12.3168 39.4071 10.9866 39.3331 9.76381C39.3108 9.76102 39.2857 9.77079 39.2634 9.77079H20.4587Z" fill="#DEDEDE"/>
</svg>
