<svg width="171" height="44" viewBox="0 0 171 44" fill="none" xmlns="http://www.w3.org/2000/svg">
<path d="M55.1249 17.411C55.1249 14.3493 52.1476 11.0977 46.9959 11.0977C41.2106 11.0977 34.8553 15.3417 33.8839 23.8083C32.8916 32.3597 38.2123 36.1603 43.5753 36.1603C48.9386 36.1603 51.7466 34.07 54.6183 31.283C52.1476 28.179 48.9596 29.615 48.3473 29.9317C47.6716 30.2693 46.8059 30.734 45.0323 30.734C42.9629 30.734 40.8516 29.805 40.8516 25.941C54.1116 24.632 55.1249 20.4723 55.1249 17.411ZM48.5583 17.9177C48.4739 18.8677 48.0939 20.4937 41.3796 21.4013C42.7943 16.3763 45.4966 15.9963 46.7426 15.9963C47.9039 15.9963 48.6426 16.904 48.5583 17.9177ZM26.0926 18.741C26.0926 18.741 23.2426 27.6933 23.0099 28.4323C22.9256 27.6723 20.8353 11.6043 20.8353 11.6043C15.9789 11.6043 13.3819 15.067 12.0096 18.72C12.0096 18.72 8.5466 27.6933 8.25127 28.4533C8.22993 27.7567 7.72327 18.8257 7.72327 18.8257C7.4276 14.349 3.3316 11.6257 0.0166016 11.6257L4.02827 35.9703C9.11693 35.9493 11.8616 32.5077 13.2976 28.8547C13.2976 28.8547 16.3589 20.937 16.4856 20.578C16.5069 20.9157 18.6816 35.9703 18.6816 35.9703C23.7913 35.9703 26.5363 32.7397 28.0143 29.2137L35.1719 11.6257C30.1253 11.6257 27.4653 15.067 26.0926 18.741ZM73.8743 11.0553C70.7283 11.0553 68.3213 12.7657 66.2943 15.2783V15.2573L68.1103 0.625C63.9296 0.625 60.5303 4.25667 59.8756 9.66167L56.7083 35.7803C59.1156 35.7803 61.6703 35.0837 63.0426 33.31C64.2673 34.8933 66.1043 36.1603 68.8279 36.1603C75.8803 36.1603 80.7153 27.968 80.7153 20.2823C80.6733 13.2723 77.2736 11.0557 73.8743 11.0557V11.0553ZM73.2199 23.6187C72.4809 27.9047 70.0949 30.8187 67.7933 30.8187C65.4709 30.8187 64.4786 29.7837 64.4786 29.7837C64.9219 26.0253 65.1963 23.724 66.0409 21.7393C66.8856 19.7547 68.8913 16.5873 70.9816 16.5873C73.0296 16.5873 73.9589 19.311 73.2199 23.6183V23.6187ZM98.3246 11.625H93.4049L93.4263 11.3717C93.7639 8.16233 94.5239 6.47333 97.0366 6.199C98.7469 6.03 99.5069 5.143 99.6969 4.172C99.8449 3.412 100.31 0.772333 100.31 0.772333C90.4279 0.709 87.3243 4.97433 86.5219 11.4773L86.5006 11.6253H86.3949C84.7903 11.6253 83.0169 13.441 82.7213 15.7423L82.6156 16.587H85.9096L83.1436 39.4327L82.2989 43.529C82.4046 43.529 82.5313 43.55 82.6366 43.55C87.2609 43.381 90.2166 39.7283 90.8713 34.4287L93.0249 16.587H94.5663C96.0863 16.587 97.8603 15.067 98.1769 12.533L98.3246 11.6253V11.625ZM123.916 11.203C118.236 11.203 112.873 15.3837 111.226 21.95C109.579 28.5167 112.07 36.2867 120.432 36.2867C128.772 36.2867 133.586 28.2 133.586 21.4643C133.586 14.771 129.046 11.203 123.916 11.203ZM126.217 23.407C125.921 26.384 124.612 30.9027 121.023 30.9027C117.412 30.9027 117.919 25.624 118.278 23.1113C118.658 20.43 120.157 16.608 123.388 16.608C126.28 16.608 126.555 20.0497 126.217 23.407ZM161.647 18.7407C161.647 18.7407 158.796 27.693 158.564 28.432C158.48 27.672 156.389 11.604 156.389 11.604C151.533 11.604 148.936 15.0667 147.564 18.7197C147.564 18.7197 144.101 27.693 143.805 28.453C143.784 27.7563 143.277 18.8253 143.277 18.8253C142.982 14.3487 138.886 11.6253 135.571 11.6253L139.561 35.97C144.65 35.949 147.395 32.5073 148.83 28.8543C148.83 28.8543 151.892 20.9367 151.998 20.5777C152.019 20.9153 154.193 35.97 154.193 35.97C159.303 35.97 162.048 32.7393 163.526 29.2133L170.684 11.6257C165.658 11.6257 162.998 15.067 161.647 18.741V18.7407ZM102.97 0.772667L98.8313 34.1543L97.9869 38.2717C98.0923 38.2717 98.2189 38.293 98.3246 38.293C102.78 38.2297 105.947 34.3233 106.538 29.4037L108.924 10.253C109.642 4.40433 106.158 0.773 102.97 0.773V0.772667Z" fill="#686868"/>
</svg>
