<svg width="136" height="45" viewBox="0 0 136 45" fill="none" xmlns="http://www.w3.org/2000/svg">
<path d="M17.4602 35.0092C7.98318 35.0092 0.0166016 27.2951 0.0166016 17.8181C0.0166016 8.34112 7.98318 0.627066 17.4602 0.627066C21.8649 0.557148 26.1122 2.2643 29.2433 5.36318L25.908 8.69847C23.6334 6.51459 20.5892 5.31608 17.4364 5.36318C10.6304 5.49609 5.18255 11.0514 5.18255 17.8586C5.18255 24.6659 10.6304 30.2211 17.4364 30.354C21.9247 30.354 24.4786 28.553 26.1176 26.9139C27.4613 25.5703 28.338 23.6453 28.6763 21.0009H17.5078V16.2743H33.2695C33.4479 17.2423 33.5325 18.2252 33.522 19.2094C33.522 22.7305 32.569 27.0902 29.4529 30.1968C26.4369 33.332 22.5775 35.0092 17.4602 35.0092Z" fill="#6F6F6F"/>
<path d="M57.1738 23.9359C57.1776 28.4174 54.481 32.4597 50.3418 34.1774C46.2025 35.895 41.4362 34.9496 38.2659 31.7821C35.0957 28.6145 34.1462 23.849 35.8602 19.7083C37.5743 15.5676 41.6144 12.8675 46.0958 12.8675C49.0451 12.8247 51.8863 13.9768 53.9729 16.0616C56.0594 18.1464 57.214 20.9866 57.1738 23.9359ZM52.3233 23.9359C52.3233 19.9526 49.4406 17.2272 46.0958 17.2272C42.751 17.2272 39.8684 19.9526 39.8684 23.9359C39.8684 27.9192 42.751 30.6446 46.0958 30.6446C49.4406 30.6446 52.3233 27.8811 52.3233 23.9359Z" fill="#6F6F6F"/>
<path d="M81.5075 23.9358C81.5248 28.4338 78.8287 32.4985 74.6781 34.2318C70.5275 35.9652 65.7413 35.0251 62.5546 31.8507C59.3679 28.6763 58.4094 23.8938 60.1267 19.7365C61.8439 15.5793 65.8982 12.8674 70.3962 12.8674C73.3481 12.8262 76.1917 13.9777 78.2833 16.0611C80.3748 18.1446 81.5373 20.9838 81.5075 23.9358ZM76.6427 23.9358C76.6427 19.9525 73.7506 17.2271 70.3962 17.2271C67.0419 17.2271 64.1497 19.9525 64.1497 23.9358C64.1497 27.9191 67.0419 30.6445 70.3962 30.6445C73.7506 30.6445 76.6427 27.881 76.6427 23.9358Z" fill="#6F6F6F"/>
<path d="M104.702 13.5393V33.4271C104.702 41.6034 99.8806 44.9577 94.1772 44.9577C89.8798 44.9789 85.9991 42.3912 84.3667 38.4158L88.6025 36.6528C89.3553 38.4539 91.204 40.5932 94.1772 40.5932C97.827 40.5932 100.09 38.33 100.09 34.0942V32.4742H99.9234C98.4452 34.1285 96.314 35.0486 94.0962 34.9899C88.5596 34.9899 83.4995 30.1681 83.4995 23.9644C83.4995 17.7608 88.5596 12.8531 94.0962 12.8531C96.3033 12.799 98.4267 13.6984 99.9234 15.3213H100.09V13.5393H104.702ZM100.414 23.9787C100.414 20.0812 97.8127 17.2271 94.5012 17.2271C91.1897 17.2271 88.3357 20.086 88.3357 23.9787C88.3357 27.8715 91.1469 30.6493 94.5012 30.6493C97.8556 30.6493 100.424 27.8381 100.424 23.9787H100.414Z" fill="#6F6F6F"/>
<path d="M112.521 1.93726V34.3372H107.685V1.93726H112.521Z" fill="#6F6F6F"/>
<path d="M131.136 27.5856L134.91 30.1014C132.857 33.1848 129.39 35.029 125.686 35.009C119.396 35.009 114.698 30.1442 114.698 23.9406C114.698 17.3558 119.434 12.8722 125.138 12.8722C130.841 12.8722 133.714 17.4415 134.615 19.9144L135.12 21.1723L120.321 27.2949C121.455 29.5153 123.213 30.6302 125.686 30.6302C128.159 30.6302 129.883 29.4295 131.136 27.5856ZM119.52 23.6023L129.416 19.4951C128.873 18.1134 127.234 17.1461 125.309 17.1461C123.681 17.2208 122.151 17.9469 121.064 19.1612C119.977 20.3755 119.424 21.9759 119.53 23.6023H119.52Z" fill="#6F6F6F"/>
</svg>
