<svg width="355" height="72" viewBox="0 0 355 72" fill="none" xmlns="http://www.w3.org/2000/svg">
<path d="M233.859 20.8069C207.178 21.2244 166.382 20.9131 143.105 27.5504C135.374 29.7549 141.004 34.261 147.122 35.9585C164.188 40.6928 186.45 40.1427 206.621 38.8181C221.056 37.8701 235.64 36.5316 249.694 35.0195C262.44 33.6483 276.852 32.5842 288.572 30.282C318.281 24.4462 277.032 16.2472 261.157 14.7249C226.401 11.3922 188.994 12.0486 153.74 13.8926C133.23 14.9655 111.66 17.9936 97.6091 23.7732C89.4004 27.1498 77.7461 31.3353 78.6428 36.1932C79.7486 42.1841 96.6257 48.7382 111.435 50.6833C155.354 56.4515 208.141 52.8188 252.767 49.7443C287.762 47.3333 347.665 42.254 353.33 26.4834C360.521 6.4607 264.941 2.85261 228.483 1.64332C168.919 -0.332379 109.977 2.04026 55.895 11.5879C31.5093 15.8929 13.2655 23.521 4.19554 32.6934C-2.63307 39.5991 2.04668 48.1387 12.8811 54.2258C23.8432 60.3846 39.7218 63.9545 59.6765 65.2587M59.6765 65.2587C84.5777 66.8861 34.4908 65.2374 59.6765 65.2587ZM59.6765 65.2587C91.7427 65.2858 -21.2767 76.1838 59.6765 65.2587Z" stroke="black" stroke-width="1.85639" stroke-linecap="round"/>
</svg>
