<svg width="144" height="32" viewBox="0 0 144 32" fill="none" xmlns="http://www.w3.org/2000/svg">
<path d="M48.2397 21.0581C47.3378 23.0387 46.0822 24.5242 44.4729 25.5145C42.8814 26.5048 41.0068 27 38.8493 27C36.8864 27 35.1798 26.5402 33.7297 25.6206C32.2973 24.701 31.2009 23.4278 30.4404 21.8008C29.6977 20.1739 29.3263 18.3347 29.3263 16.2833C29.3263 14.2319 29.6977 12.4193 30.4404 10.8454C31.2009 9.25379 32.2973 8.01588 33.7297 7.13167C35.1621 6.22977 36.8687 5.77882 38.8493 5.77882C41.0776 5.77882 42.9875 6.31819 44.579 7.39693C46.1883 8.45799 47.497 10.1822 48.505 12.5696L44.5525 15.01C44.1458 13.7014 43.6683 12.7111 43.1201 12.0391C42.5896 11.3494 41.9883 10.8896 41.3163 10.6597C40.6443 10.4298 39.822 10.3148 38.8493 10.3148C37.4169 10.3148 36.2232 10.7658 35.2683 11.6677C34.3133 12.5519 33.8358 14.0904 33.8358 16.2833C33.8358 18.653 34.331 20.28 35.3213 21.1642C36.3293 22.0307 37.5937 22.464 39.1146 22.464C40.4232 22.464 41.4666 22.1899 42.2447 21.6417C43.0228 21.0934 43.6683 20.0766 44.1812 18.5911L48.2397 21.0581ZM57.8109 27.3979C56.3077 27.3979 54.9283 27.0177 53.6727 26.2573C52.4348 25.4791 51.4534 24.4358 50.7283 23.1271C50.0032 21.8185 49.6407 20.3861 49.6407 18.8298C49.6407 17.309 50.0032 15.9031 50.7283 14.6121C51.4534 13.3035 52.4437 12.269 53.6993 11.5085C54.9549 10.7304 56.3254 10.3414 57.8109 10.3414C59.2964 10.3414 60.658 10.7304 61.896 11.5085C63.1339 12.269 64.1153 13.3035 64.8404 14.6121C65.5654 15.9031 65.928 17.309 65.928 18.8298C65.928 20.3861 65.5654 21.8185 64.8404 23.1271C64.1153 24.4358 63.1339 25.4791 61.896 26.2573C60.658 27.0177 59.2964 27.3979 57.8109 27.3979ZM57.7843 23.0476C58.9515 23.0476 59.8711 22.6497 60.5431 21.8539C61.2151 21.0581 61.5511 20.0589 61.5511 18.8564C61.5511 17.6715 61.2151 16.6812 60.5431 15.8854C59.8711 15.0896 58.9515 14.6917 57.7843 14.6917C56.6349 14.6917 55.7153 15.0985 55.0256 15.9119C54.3536 16.7077 54.0176 17.6892 54.0176 18.8564C54.0176 20.0412 54.3536 21.0404 55.0256 21.8539C55.7153 22.6497 56.6349 23.0476 57.7843 23.0476ZM77.7705 10.3944C79.3797 10.3944 80.6972 10.7304 81.7229 11.4024C82.7663 12.0568 83.5444 13.1355 84.0573 14.6387C84.5878 16.1418 84.853 18.1402 84.853 20.6336V27H80.5027V20.6336C80.5027 18.6176 80.1844 17.1587 79.5477 16.2568C78.9288 15.3549 77.8058 14.9039 76.1789 14.9039C74.6404 14.9039 73.482 15.4079 72.7039 16.4159C71.9435 17.4239 71.5633 18.8298 71.5633 20.6336V27H67.0538V10.8188H71.5633L70.7675 16.469H71.298C71.5102 14.6298 71.8904 13.277 72.4387 12.4104C73.0046 11.5262 73.6854 10.9692 74.4812 10.7393C75.2947 10.5094 76.3911 10.3944 77.7705 10.3944ZM93.3165 15.3283V18.5911C93.3165 20.0766 93.3961 21.0581 93.5553 21.5355C93.7144 22.013 94.1035 22.3137 94.7224 22.4374C95.3414 22.5612 96.6323 22.6231 98.5953 22.6231V27C95.4121 27 93.1662 26.7789 91.8576 26.3368C90.5666 25.8947 89.7531 25.1431 89.4171 24.0821C89.0988 23.021 88.9397 21.1907 88.9397 18.5911V15.3283H85.9952V10.8188H88.9397V5.77882H93.3165V10.8188H98.5953V15.3283H93.3165ZM103.948 16.469C104.16 14.7713 104.54 13.5245 105.088 12.7288C105.654 11.9153 106.37 11.3936 107.237 11.1637C108.121 10.9338 109.359 10.8188 110.951 10.8188V15.8324C110.102 15.6201 109.341 15.514 108.669 15.514C107.166 15.514 106.043 15.9827 105.3 16.9199C104.575 17.8572 104.213 19.0951 104.213 20.6336V27H99.7298V10.7923H104.213L103.417 16.469H103.948ZM119.199 27.3979C117.696 27.3979 116.317 27.0177 115.061 26.2573C113.823 25.4791 112.842 24.4358 112.117 23.1271C111.392 21.8185 111.029 20.3861 111.029 18.8298C111.029 17.309 111.392 15.9031 112.117 14.6121C112.842 13.3035 113.832 12.269 115.088 11.5085C116.343 10.7304 117.714 10.3414 119.199 10.3414C120.685 10.3414 122.047 10.7304 123.285 11.5085C124.522 12.269 125.504 13.3035 126.229 14.6121C126.954 15.9031 127.317 17.309 127.317 18.8298C127.317 20.3861 126.954 21.8185 126.229 23.1271C125.504 24.4358 124.522 25.4791 123.285 26.2573C122.047 27.0177 120.685 27.3979 119.199 27.3979ZM119.173 23.0476C120.34 23.0476 121.26 22.6497 121.932 21.8539C122.604 21.0581 122.94 20.0589 122.94 18.8564C122.94 17.6715 122.604 16.6812 121.932 15.8854C121.26 15.0896 120.34 14.6917 119.173 14.6917C118.023 14.6917 117.104 15.0985 116.414 15.9119C115.742 16.7077 115.406 17.6892 115.406 18.8564C115.406 20.0412 115.742 21.0404 116.414 21.8539C117.104 22.6497 118.023 23.0476 119.173 23.0476ZM128.961 5.77882H133.337V27H128.961V5.77882Z" fill="black"/>
<path d="M19.2445 19.2719C19.2445 22.809 16.0318 25.8096 11.8958 25.8096C7.75969 25.8096 4.54706 22.809 4.54706 19.2719C4.54706 15.7348 7.75969 12.7343 11.8958 12.7343C16.0318 12.7343 19.2445 15.7348 19.2445 19.2719Z" stroke="black" stroke-width="1.52381"/>
<path d="M23.0292 15.7573C23.0292 16.9557 22.0379 18.2457 19.9662 19.2815C17.9401 20.2946 15.0878 20.9432 11.8955 20.9432C8.70332 20.9432 5.85096 20.2946 3.82486 19.2815C1.75318 18.2457 0.761905 16.9557 0.761905 15.7573C0.761905 14.5589 1.75318 13.2689 3.82486 12.2331C5.85096 11.22 8.70332 10.5714 11.8955 10.5714C15.0878 10.5714 17.9401 11.22 19.9662 12.2331C22.0379 13.2689 23.0292 14.5589 23.0292 15.7573Z" stroke="black" stroke-width="1.52381"/>
</svg>
